<svg id="Capa_1" enable-background="new 0 0 502 502" height="512" viewBox="0 0 502 502" width="512" xmlns="http://www.w3.org/2000/svg"><path d="m197.648 122.39c-1.998-2.64-5.758-3.162-8.4-1.167l-52.227 39.493c-2.643 1.999-3.165 5.762-1.166 8.405.333.441.726.833 1.166 1.166l52.227 39.493c2.618 2.031 6.387 1.555 8.418-1.064s1.555-6.387-1.064-8.418c-.039-.03-.078-.06-.118-.089l-45.9-34.707 45.9-34.707c2.643-2 3.164-5.763 1.164-8.405z"/><path d="m299.646 160.716-52.227-39.493c-2.652-1.987-6.412-1.449-8.4 1.203-1.976 2.636-1.457 6.372 1.163 8.369l45.9 34.707-45.9 34.707c-2.668 1.966-3.236 5.722-1.27 8.39s5.722 3.236 8.39 1.27c.04-.029.079-.059.118-.089l52.227-39.493c2.643-1.999 3.165-5.762 1.166-8.405-.334-.44-.726-.833-1.167-1.166z"/><path d="m228.144 100.99c-3.276-.493-6.332 1.759-6.831 5.034l-17.829 117.8c-.497 3.277 1.756 6.336 5.033 6.833s6.336-1.756 6.833-5.033l17.828-117.795c.501-3.276-1.749-6.337-5.025-6.838-.003 0-.006 0-.009-.001z"/><path d="m472.448 194.003h-35.448v-168.342c0-3.314-3.094-5.658-6.407-5.658h-424.524c-3.186-.162-5.901 2.29-6.063 5.476-.003.061-.005.122-.006.182v338.758c0 3.313 2.755 5.584 6.069 5.584h148.075l-15.394 55h-26.9c-3.314 0-6 2.686-6 6s2.686 6 6 6h212.964c2.123.126 4.134-.965 5.186-2.813v18.673c.088 16.182 13.277 29.228 29.458 29.141.035 0 .07 0 .106-.001h112.884c16.172.148 29.403-12.842 29.551-29.014 0-.042.001-.084.001-.126v-229.7c-.077-16.182-13.257-29.237-29.439-29.161-.037.001-.075.001-.113.001zm-130.448 106.073v-48.073h148v163h-148zm148-76.91v16.837h-148v-16.837c.075-9.554 7.88-17.239 17.434-17.164.043 0 .086.001.13.001h112.884c9.548-.144 17.406 7.479 17.55 17.028.001.045.002.09.002.135zm-478-191.163h413v162h-65.436c-16.189-.138-29.425 12.873-29.563 29.063 0 .033 0 .067-.001.1v64.837h-318zm0 268h318v58h-318zm154.607 70h103.449l15.393 55h-134.236zm158.207 55h-26.9l-15.394-55h47.48v58.441c-.977-2.002-2.961-3.318-5.186-3.441zm147.634 45h-112.884c-9.544.156-17.407-7.455-17.562-16.999-.001-.047-.001-.094-.002-.141v-25.86h148v25.86c-.072 9.539-7.862 17.213-17.401 17.142-.05 0-.101-.001-.151-.002z"/><path d="m396.025 227.003h39.962c3.314 0 6-2.686 6-6s-2.686-6-6-6h-39.962c-3.314 0-6 2.686-6 6s2.686 6 6 6z"/><path d="m416.006 430.383c-10.107 0-18.3 8.193-18.3 18.3s8.193 18.3 18.3 18.3 18.3-8.193 18.3-18.3c-.009-10.103-8.197-18.291-18.3-18.3zm0 24.592c-3.479 0-6.3-2.821-6.3-6.3s2.821-6.3 6.3-6.3 6.3 2.821 6.3 6.3c0 3.48-2.821 6.3-6.3 6.3z"/><path d="m386.322 280.003h91.584c3.314 0 6-2.686 6-6s-2.686-6-6-6h-91.584c-3.314 0-6 2.686-6 6s2.686 6 6 6z"/><path d="m477.906 297.003h-91.584c-3.314 0-6 2.686-6 6s2.686 6 6 6h91.584c3.314 0 6-2.686 6-6s-2.686-6-6-6z"/><path d="m477.906 327.003h-91.584c-3.314 0-6 2.686-6 6s2.686 6 6 6h91.584c3.314 0 6-2.686 6-6s-2.686-6-6-6z"/><path d="m477.906 357.003h-91.584c-3.314 0-6 2.686-6 6s2.686 6 6 6h91.584c3.314 0 6-2.686 6-6s-2.686-6-6-6z"/><path d="m477.906 387.003h-91.584c-3.314 0-6 2.686-6 6s2.686 6 6 6h91.584c3.314 0 6-2.686 6-6s-2.686-6-6-6z"/><path d="m367.493 268.003h-13.387c-3.314 0-6 2.686-6 6s2.686 6 6 6h13.387c3.314 0 6-2.686 6-6s-2.686-6-6-6z"/><path d="m367.493 297.003h-13.387c-3.314 0-6 2.686-6 6s2.686 6 6 6h13.387c3.314 0 6-2.686 6-6s-2.686-6-6-6z"/><path d="m367.493 327.003h-13.387c-3.314 0-6 2.686-6 6s2.686 6 6 6h13.387c3.314 0 6-2.686 6-6s-2.686-6-6-6z"/><path d="m367.493 357.003h-13.387c-3.314 0-6 2.686-6 6s2.686 6 6 6h13.387c3.314 0 6-2.686 6-6s-2.686-6-6-6z"/><path d="m367.493 387.003h-13.387c-3.314 0-6 2.686-6 6s2.686 6 6 6h13.387c3.314 0 6-2.686 6-6s-2.686-6-6-6z"/></svg>